<?xml version="1.0" encoding="UTF-8" standalone="no"?>
<!-- Created with Inkscape (http://www.inkscape.org/) -->
<svg
   xmlns:dc="http://purl.org/dc/elements/1.1/"
   xmlns:cc="http://creativecommons.org/ns#"
   xmlns:rdf="http://www.w3.org/1999/02/22-rdf-syntax-ns#"
   xmlns:svg="http://www.w3.org/2000/svg"
   xmlns="http://www.w3.org/2000/svg"
   xmlns:sodipodi="http://sodipodi.sourceforge.net/DTD/sodipodi-0.dtd"
   xmlns:inkscape="http://www.inkscape.org/namespaces/inkscape"
   id="svg2403"
   sodipodi:version="0.32"
   inkscape:version="0.46"
   width="292.53024"
   height="286.23749"
   xml:space="preserve"
   sodipodi:docname="catchup.svg"
   version="1.0"
   inkscape:output_extension="org.inkscape.output.svg.inkscape"><metadata
     id="metadata2408"><rdf:RDF><cc:Work
         rdf:about=""><dc:format>image/svg+xml</dc:format><dc:type
           rdf:resource="http://purl.org/dc/dcmitype/StillImage" /></cc:Work></rdf:RDF></metadata><defs
     id="defs2406"><inkscape:perspective
       sodipodi:type="inkscape:persp3d"
       inkscape:vp_x="0 : 526.18109 : 1"
       inkscape:vp_y="0 : 1000 : 0"
       inkscape:vp_z="744.09448 : 526.18109 : 1"
       inkscape:persp3d-origin="372.04724 : 350.78739 : 1"
       id="perspective2410" /></defs><sodipodi:namedview
     inkscape:window-height="738"
     inkscape:window-width="1280"
     inkscape:pageshadow="2"
     inkscape:pageopacity="0.0"
     guidetolerance="10.0"
     gridtolerance="10.0"
     objecttolerance="10.0"
     borderopacity="1.0"
     bordercolor="#666666"
     pagecolor="#ffffff"
     id="base"
     showgrid="false"
     units="cm"
     inkscape:zoom="1.7537367"
     inkscape:cx="135.94879"
     inkscape:cy="150.16246"
     inkscape:window-x="-8"
     inkscape:window-y="-8"
     inkscape:current-layer="g2412" /><g
     id="g2412"
     inkscape:groupmode="layer"
     inkscape:label="bu"
     transform="matrix(1.25,0,0,-1.25,-11.85725,1033.875)"><path
       d="M 94.252,676.46 L 129.69,697.72 L 165.12,676.46 L 129.69,655.2 L 94.252,676.46 z"
       style="fill:#ffffff;fill-opacity:1;fill-rule:evenodd;stroke:none"
       id="path2414" /><path
       d="M 94.252,676.46 L 129.69,697.72 L 165.12,676.46 L 129.69,655.2 L 94.252,676.46 z"
       style="fill:none;stroke:#000000;stroke-width:0.80000001;stroke-linecap:round;stroke-linejoin:round;stroke-miterlimit:10;stroke-dasharray:none;stroke-opacity:1"
       id="path2416" /><text
       transform="matrix(1,0,0,-1,115.01,678.86)"
       id="text2418"><tspan
         style="font-size:7.99991989px;font-variant:normal;font-weight:normal;writing-mode:lr-tb;fill:#000000;fill-opacity:1;fill-rule:nonzero;stroke:none;font-family:Arial;-inkscape-font-specification:Arial"
         x="0 5.3357759 7.9999919 12.44916 14.671728 16.449047 20.898216 25.347383 29.347488"
         y="0"
         sodipodi:role="line"
         id="tspan2420">Are logs </tspan></text>
<text
       transform="matrix(1,0,0,-1,111.67,669.26)"
       id="text2422"><tspan
         style="font-size:7.99991989px;font-variant:normal;font-weight:normal;writing-mode:lr-tb;fill:#000000;fill-opacity:1;fill-rule:nonzero;stroke:none;font-family:Arial;-inkscape-font-specification:Arial"
         x="0 4.4491682 8.4492722 12.89844 14.67576 16.453079 20.902248 25.351416 27.128736"
         y="0"
         sodipodi:role="line"
         id="tspan2424">available</tspan></text>
<text
       transform="matrix(1,0,0,-1,143.25,669.26)"
       id="text2426"
       style="stroke-width:0.80000001;stroke-miterlimit:10;stroke-dasharray:none"><tspan
         style="font-size:7.99991989px;font-variant:normal;font-weight:normal;writing-mode:lr-tb;fill:#000000;fill-opacity:1;fill-rule:nonzero;stroke:none;stroke-width:0.80000001;stroke-miterlimit:10;stroke-dasharray:none;font-family:Arial;-inkscape-font-specification:Arial"
         x="0"
         y="0"
         id="tspan2428">?</tspan></text>
<path
       d="M 94.252,719.69 L 165.118,719.69 L 165.118,762.21 L 94.252,762.21 L 94.252,719.69 z"
       style="fill:#ffffff;fill-opacity:1;fill-rule:evenodd;stroke:none"
       id="path2430" /><path
       d="M 94.252,719.69 L 165.118,719.69 L 165.118,762.21 L 94.252,762.21 L 94.252,719.69 z"
       style="fill:none;stroke:#000000;stroke-width:0.80000001;stroke-linecap:round;stroke-linejoin:round;stroke-miterlimit:10;stroke-dasharray:none;stroke-opacity:1"
       id="path2432" /><text
       transform="matrix(1,0,0,-1,97.664,743.35)"
       id="text2434"><tspan
         style="font-size:7.99991989px;font-variant:normal;font-weight:normal;writing-mode:lr-tb;fill:#000000;fill-opacity:1;fill-rule:nonzero;stroke:none;font-family:Arial;-inkscape-font-specification:Arial"
         x="0 5.3357759 9.7849436 14.234112 18.683281 20.4606 24.909767 29.358936 31.581505 37.358929 41.808098 44.030663 48.030769"
         y="0"
         sodipodi:role="line"
         id="tspan2436">Sending Catch</tspan></text>
<text
       transform="matrix(1,0,0,-1,150.14,743.35)"
       id="text2438"
       style="stroke-width:0.80000001;stroke-miterlimit:10;stroke-dasharray:none"><tspan
         style="font-size:7.99991989px;font-variant:normal;font-weight:normal;writing-mode:lr-tb;fill:#000000;fill-opacity:1;fill-rule:nonzero;stroke:none;stroke-width:0.80000001;stroke-miterlimit:10;stroke-dasharray:none;font-family:Arial;-inkscape-font-specification:Arial"
         x="0"
         y="0"
         id="tspan2440">-</tspan></text>
<text
       transform="matrix(1,0,0,-1,152.81,743.35)"
       id="text2442"
       style="stroke-width:0.80000001;stroke-miterlimit:10;stroke-dasharray:none"><tspan
         style="font-size:7.99991989px;font-variant:normal;font-weight:normal;writing-mode:lr-tb;fill:#000000;fill-opacity:1;fill-rule:nonzero;stroke:none;stroke-width:0.80000001;stroke-miterlimit:10;stroke-dasharray:none;font-family:Arial;-inkscape-font-specification:Arial"
         x="0 4.4491682 8.8983364"
         y="0"
         sodipodi:role="line"
         id="tspan2444">up </tspan></text>
<text
       transform="matrix(1,0,0,-1,118.79,733.75)"
       id="text2446"><tspan
         style="font-size:7.99991989px;font-variant:normal;font-weight:normal;writing-mode:lr-tb;fill:#000000;fill-opacity:1;fill-rule:nonzero;stroke:none;font-family:Arial;-inkscape-font-specification:Arial"
         x="0 6.222672 10.67184 15.121008 17.785225"
         y="0"
         sodipodi:role="line"
         id="tspan2448">Query</tspan></text>
<path
       d="M 129.69,719.69 L 129.69,702.55"
       style="fill:none;stroke:#000000;stroke-width:0.80000001;stroke-linecap:round;stroke-linejoin:round;stroke-miterlimit:10;stroke-dasharray:none;stroke-opacity:1"
       id="path2450" /><path
       d="M 132.45,703.24 L 129.69,697.72 L 126.93,703.24 L 132.45,703.24 z"
       style="fill:#000000;fill-opacity:1;fill-rule:evenodd;stroke:none;stroke-width:0.80000001;stroke-miterlimit:10;stroke-dasharray:none"
       id="path2452" /><path
       d="M 23.386,598.51 L 94.252,598.51 L 94.252,641.03 L 23.386,641.03 L 23.386,598.51 z"
       style="fill:#ffffff;fill-opacity:1;fill-rule:evenodd;stroke:none;stroke-width:0.80000001;stroke-miterlimit:10;stroke-dasharray:none"
       id="path2454" /><path
       d="M 23.386,598.51 L 94.252,598.51 L 94.252,641.03 L 23.386,641.03 L 23.386,598.51 z"
       style="fill:none;stroke:#000000;stroke-width:0.80000001;stroke-linecap:round;stroke-linejoin:round;stroke-miterlimit:10;stroke-dasharray:none;stroke-opacity:1"
       id="path2456" /><text
       transform="matrix(1,0,0,-1,34.813,622.17)"
       id="text2458"><tspan
         style="font-size:7.99991989px;font-variant:normal;font-weight:normal;writing-mode:lr-tb;fill:#000000;fill-opacity:1;fill-rule:nonzero;stroke:none;font-family:Arial;-inkscape-font-specification:Arial"
         x="0 5.7774239 10.226592 14.226696 18.675863 22.675968 27.125135 29.789352 32.011921 34.234489 36.898705 41.347874 48.011906"
         y="0"
         sodipodi:role="line"
         id="tspan2460">Recover from </tspan></text>
<text
       transform="matrix(1,0,0,-1,42.584,612.57)"
       id="text2462"><tspan
         style="font-size:7.99991989px;font-variant:normal;font-weight:normal;writing-mode:lr-tb;fill:#000000;fill-opacity:1;fill-rule:nonzero;stroke:none;font-family:Arial;-inkscape-font-specification:Arial"
         x="0 4.000104 8.4492722 12.89844 17.347609 21.347712 25.796881 30.246048"
         y="0"
         sodipodi:role="line"
         id="tspan2464">snapshot</tspan></text>
<path
       d="M 94.252,676.46 L 58.819,676.46 L 58.819,645.86"
       style="fill:none;stroke:#000000;stroke-width:0.80000001;stroke-linecap:round;stroke-linejoin:round;stroke-miterlimit:10;stroke-dasharray:none;stroke-opacity:1"
       id="path2466" /><path
       d="M 61.579,646.55 L 58.819,641.03 L 56.059,646.55 L 61.579,646.55 z"
       style="fill:#000000;fill-opacity:1;fill-rule:evenodd;stroke:none;stroke-width:0.80000001;stroke-miterlimit:10;stroke-dasharray:none"
       id="path2468" /><path
       d="M 79.039,670.96 L 91.039,670.96 L 91.039,680.5599 L 79.039,680.5599 L 79.039,670.96 z"
       style="fill:#ffffff;fill-opacity:1;fill-rule:evenodd;stroke:none;stroke-width:0.80000001;stroke-miterlimit:10;stroke-dasharray:none"
       id="path2470" /><text
       transform="matrix(1,0,0,-1,79.039,673.36)"
       id="text2472"><tspan
         style="font-size:7.99991989px;font-variant:normal;font-weight:normal;writing-mode:lr-tb;fill:#000000;fill-opacity:1;fill-rule:nonzero;stroke:none;font-family:Arial;-inkscape-font-specification:Arial"
         x="0 5.7774239"
         y="0"
         sodipodi:role="line"
         id="tspan2474">NO</tspan></text>
<path
       d="M 158.74,598.51 L 229.606,598.51 L 229.606,641.03 L 158.74,641.03 L 158.74,598.51 z"
       style="fill:#ffffff;fill-opacity:1;fill-rule:evenodd;stroke:none"
       id="path2476" /><path
       d="M 158.74,598.51 L 229.606,598.51 L 229.606,641.03 L 158.74,641.03 L 158.74,598.51 z"
       style="fill:none;stroke:#000000;stroke-width:0.80000001;stroke-linecap:round;stroke-linejoin:round;stroke-miterlimit:10;stroke-dasharray:none;stroke-opacity:1"
       id="path2478" /><text
       transform="matrix(1,0,0,-1,161.72,617.37)"
       id="text2480"
       style="stroke:none"><tspan
         style="font-size:7.99991989px;font-variant:normal;font-weight:normal;writing-mode:lr-tb;fill:#000000;fill-opacity:1;fill-rule:nonzero;stroke:none;font-family:Arial;-inkscape-font-specification:Arial"
         x="0 5.7774239 10.226592 14.226696 18.675863 22.675968 27.125135 29.789352 32.011921 34.234489 36.898705 41.347874 48.011906 50.23447 52.011791 56.46096 60.91013"
         y="0"
         sodipodi:role="line"
         id="tspan2482">Recover from logs</tspan></text>
<path
       d="M 165.12,676.46 L 194.17,676.46 L 194.17,645.86"
       style="fill:none;stroke:#000000;stroke-width:0.80000001;stroke-linecap:round;stroke-linejoin:round;stroke-miterlimit:10;stroke-dasharray:none;stroke-opacity:1"
       id="path2484" /><path
       d="M 196.93,646.55 L 194.17,641.03 L 191.41,646.55 L 196.93,646.55 z"
       style="fill:#000000;fill-opacity:1;fill-rule:evenodd;stroke:none;stroke-width:0.80000001;stroke-miterlimit:10;stroke-dasharray:none"
       id="path2486" /><path
       d="M 170.58,670.96 L 186.587,670.96 L 186.587,680.5599 L 170.58,680.5599 L 170.58,670.96 z"
       style="fill:#ffffff;fill-opacity:1;fill-rule:evenodd;stroke:none;stroke-width:0.80000001;stroke-miterlimit:10;stroke-dasharray:none"
       id="path2488" /><text
       transform="matrix(1,0,0,-1,170.58,673.36)"
       id="text2490"><tspan
         style="font-size:7.99991989px;font-variant:normal;font-weight:normal;writing-mode:lr-tb;fill:#000000;fill-opacity:1;fill-rule:nonzero;stroke:none;font-family:Arial;-inkscape-font-specification:Arial"
         x="0 5.3357759 10.671552"
         y="0"
         sodipodi:role="line"
         id="tspan2492">YES</tspan></text>
<path
       d="M 23.386,619.77 L 9.8858,619.77 L 9.8858,740.95 L 89.422,740.95"
       style="fill:none;stroke:#000000;stroke-width:0.80000001;stroke-linecap:round;stroke-linejoin:round;stroke-miterlimit:10;stroke-dasharray:none;stroke-opacity:1"
       id="path2494" /><path
       d="M 88.732,743.71 L 94.252,740.95 L 88.732,738.19 L 88.732,743.71 z"
       style="fill:#000000;fill-opacity:1;fill-rule:evenodd;stroke:none;stroke-width:0.80000001;stroke-miterlimit:10;stroke-dasharray:none"
       id="path2496" /><path
       d="M 94.252,784.18 L 165.118,784.18 L 165.118,826.7 L 94.252,826.7 L 94.252,784.18 z"
       style="fill:#ffffff;fill-opacity:1;fill-rule:evenodd;stroke:none;stroke-width:0.80000001;stroke-miterlimit:10;stroke-dasharray:none"
       id="path2498" /><path
       d="M 94.252,784.18 L 165.118,784.18 L 165.118,826.7 L 94.252,826.7 L 94.252,784.18 z"
       style="fill:none;stroke:#000000;stroke-width:0.80000001;stroke-linecap:round;stroke-linejoin:round;stroke-miterlimit:10;stroke-dasharray:none;stroke-opacity:1"
       id="path2500" /><text
       transform="matrix(1,0,0,-1,110.57,807.84)"
       id="text2502"><tspan
         style="font-size:7.99991989px;font-variant:normal;font-weight:normal;writing-mode:lr-tb;fill:#000000;fill-opacity:1;fill-rule:nonzero;stroke:none;font-family:Arial;-inkscape-font-specification:Arial"
         x="0 7.5506401 11.999808 13.777128 15.999696 17.777016 22.226185 26.675352 28.897921 31.120487 35.569656 38.233871"
         y="0"
         sodipodi:role="line"
         id="tspan2504">Waiting for </tspan></text>
<text
       transform="matrix(1,0,0,-1,112.79,798.24)"
       id="text2506"><tspan
         style="font-size:7.99991989px;font-variant:normal;font-weight:normal;writing-mode:lr-tb;fill:#000000;fill-opacity:1;fill-rule:nonzero;stroke:none;font-family:Arial;-inkscape-font-specification:Arial"
         x="0 4.4491682 8.4492722 10.67184 12.44916 16.449265 20.898432 23.121 24.898319 29.347488"
         y="0"
         sodipodi:role="line"
         id="tspan2508">activation</tspan></text>
<path
       d="M 129.69,784.18 L 129.69,767.04"
       style="fill:none;stroke:#000000;stroke-width:0.80000001;stroke-linecap:round;stroke-linejoin:round;stroke-miterlimit:10;stroke-dasharray:none;stroke-opacity:1"
       id="path2510" /><path
       d="M 132.45,767.73 L 129.69,762.21 L 126.93,767.73 L 132.45,767.73 z"
       style="fill:#000000;fill-opacity:1;fill-rule:evenodd;stroke:none;stroke-width:0.80000001;stroke-miterlimit:10;stroke-dasharray:none"
       id="path2512" /><path
       d="M 229.61,619.77 L 243.11,619.77 L 243.11,805.44 L 169.95,805.44"
       style="fill:none;stroke:#000000;stroke-width:0.80000001;stroke-linecap:round;stroke-linejoin:round;stroke-miterlimit:10;stroke-dasharray:none;stroke-opacity:1"
       id="path2514" /><path
       d="M 170.64,802.68 L 165.12,805.44 L 170.64,808.2 L 170.64,802.68 z"
       style="fill:#000000;fill-opacity:1;fill-rule:evenodd;stroke:none;stroke-width:0.80000001;stroke-miterlimit:10;stroke-dasharray:none"
       id="path2516" /></g></svg>